{
.appVersion = "3039";
.formatVersion = 3;
axes = (
{
name = Weight;
tag = wght;
}
);
date = "2021-01-23 05:47:30 +0000";
familyName = Eorzea;
fontMaster = (
{
axesValues = (
100
);
id = "4CCF3E11-34F0-4D6E-A638-D119D8A2B44F";
metricValues = (
{
pos = 800;
},
{
pos = 700;
},
{
pos = 500;
},
{
},
{
pos = -200;
}
);
name = Regular;
}
);
glyphs = (
{
glyphname = A;
lastChange = "2021-01-23 05:27:27 +0000";
layers = (
{
layerId = "4CCF3E11-34F0-4D6E-A638-D119D8A2B44F";
shapes = (
{
closed = 1;
nodes = (
(61,1,o),
(108,290,o),
(120,399,cs),
(129,481,o),
(122,550,o),
(126,607,cs),
(129,646,o),
(188,715,o),
(215,716,cs),
(240,716,o),
(258,715,o),
(269,715,cs),
(275,715,o),
(276,695,o),
(275,688,c),
(270,675,o),
(256,657,o),
(254,639,cs),
(248.1,573.983,l),
(242.081,503.537,l),
(248.1,573.983,ls),
(253,634,o),
(455.965,729.157,o),
(531,730,cs),
(653,731,o),
(666,670,o),
(666,641,cs),
(666,611,o),
(624,563,o),
(591,563,cs),
(559,562,o),
(516,614,o),
(472,613,cs),
(395.204,612.192,o),
(282.467,533.62,o),
(242.081,503.537,c),
(230.214,360.643,l),
(223.409,277.417,l),
(230.214,360.643,ls),
(236,426,o),
(429.946,480.591,o),
(488,479,cs),
(587,478,o),
(637,340,o),
(634,267,cs),
(629,145,o),
(493,39,o),
(394,37,cs),
(316,37,o),
(253,124,o),
(211,124,cs),
(211,124,o),
(221,253,o),
(221.405,252.778,c),
(211,124,l),
(206,124,ls),
(200,124,o),
(165,122,o),
(154,113,cs),
(130,93,o),
(61,1,o),
(61,1,c)
);
},
{
closed = 1;
nodes = (
(271.667,207.384,o),
(346.481,120.182,o),
(416,123,cs),
(473,126,o),
(497,201,o),
(497,251,cs),
(497,292,o),
(451,372,o),
(403,372,cs),
(366.541,372,o),
(270.289,309.439,o),
(223.409,277.417,c),
(221.405,252.778,l)
);
}
);
width = 727;
}
);
unicode = 65;
},
{
glyphname = B;
lastChange = "2020-01-09 16:17:27 +0000";
layers = (
{
layerId = "4CCF3E11-34F0-4D6E-A638-D119D8A2B44F";
shapes = (
{
closed = 1;
nodes = (
(45,466,o),
(359,684,o),
(497,686,cs),
(594,687,o),
(682,629,o),
(678,540,cs),
(671,406,o),
(631,365,o),
(568,306,cs),
(493,236,o),
(437,205,o),
(409,204,cs),
(372,204,o),
(304,205,o),
(304,205,c),
(304,522,l),
(304,522,o),
(174,420,o),
(170,297,cs),
(167,228,o),
(174,84,o),
(289,85,cs),
(405,86,o),
(590,219,o),
(590,219,c),
(590,219,o),
(402,0,o),
(197,0,cs),
(74,1,o),
(27,72,o),
(30,149,cs)
);
},
{
closed = 1;
nodes = (
(410,273,o),
(549,288,o),
(552,504,cs),
(553,550,o),
(534,618,o),
(488,618,cs),
(457,617,o),
(418,581,o),
(418,581,c),
(410,273,l)
);
}
);
width = 708;
}
);
unicode = 66;
},
{
glyphname = C;
lastChange = "2020-01-09 16:19:11 +0000";
layers = (
{
layerId = "4CCF3E11-34F0-4D6E-A638-D119D8A2B44F";
shapes = (
{
closed = 1;
nodes = (
(35,554,o),
(489,723,o),
(489,723,c),
(489,723,l),
(551,723,l),
(551,64,l),
(448,1,l),
(448,1,o),
(30,30,o),
(30,353,cs)
);
},
{
closed = 1;
nodes = (
(179,143,o),
(448,115,o),
(448,115,c),
(448,642,l),
(418,629,o),
(179,519,o),
(179,351,cs)
);
},
{
closed = 1;
nodes = (
(451,643,l),
(451,643,o),
(450,643,o),
(448,642,c),
(448,643,l)
);
}
);
width = 581;
}
);
unicode = 67;
},
{
glyphname = D;
lastChange = "2020-01-09 16:21:13 +0000";
layers = (
{
layerId = "4CCF3E11-34F0-4D6E-A638-D119D8A2B44F";
shapes = (
{
closed = 1;
nodes = (
(28,405,o),
(436,715,o),
(569,713,cs),
(643,713,o),
(728,607,o),
(728,542,cs),
(728,493,o),
(698,426,o),
(658,426,c),
(602,430,o),
(610,491,o),
(610,529,cs),
(610,580,o),
(607,644,o),
(560,644,cs),
(391,649,o),
(601,2,o),
(287,2,cs),
(189,2,o),
(30,39,o),
(30,173,cs)
);
},
{
closed = 1;
nodes = (
(139,136,o),
(213,99,o),
(273,99,cs),
(426,102,o),
(408,576,o),
(408,576,c),
(408,576,o),
(136,371,o),
(139,218,cs)
);
}
);
width = 758;
}
);
unicode = 68;
},
{
glyphname = E;
lastChange = "2020-01-09 16:31:14 +0000";
layers = (
{
layerId = "4CCF3E11-34F0-4D6E-A638-D119D8A2B44F";
shapes = (
{
closed = 1;
nodes = (
(186,787,l),
(186,787,o),
(149,734,o),
(149,702,c),
(149,666,o),
(169,646,o),
(194,645,c),
(241,644,o),
(352,696,o),
(434,696,c),
(684,696,o),
(729,475,o),
(724,361,c),
(724,114,o),
(542,2,o),
(374,1,c),
(171,1,o),
(97,81,o),
(97,81,c),
(180,172,l),
(180,172,o),
(303,70,o),
(397,70,c),
(562,74,o),
(575,255,o),
(574,348,c),
(574,441,o),
(544,628,o),
(393,628,c),
(315,633,o),
(207,541,o),
(147,541,c),
(96,542,o),
(30,572,o),
(30,638,c),
(31,701,o),
(186,787,o),
(186,787,c)
);
},
{
closed = 1;
nodes = (
(205,406,l),
(602,406,l),
(600,324,l),
(132,324,l),
(205,406,l)
);
}
);
width = 754;
}
);
unicode = 69;
},
{
glyphname = F;
lastChange = "2020-01-09 16:32:57 +0000";
layers = (
{
layerId = "4CCF3E11-34F0-4D6E-A638-D119D8A2B44F";
shapes = (
{
closed = 1;
nodes = (
(303,778,l),
(482,778,o),
(601,697,o),
(603,644,c),
(603,619,o),
(535,537,o),
(515,536,c),
(465,536,o),
(474,692,o),
(307,692,c),
(252,691,o),
(147,667,o),
(147,612,c),
(147,511,o),
(147,87,o),
(149,87,c),
(55,1,l),
(30,25,l),
(30,25,o),
(30,453,o),
(30,587,c),
(30,686,o),
(115,781,o),
(303,778,c)
);
}
);
width = 633;
}
);
unicode = 70;
},
{
glyphname = G;
lastChange = "2020-01-09 16:38:49 +0000";
layers = (
{
layerId = "4CCF3E11-34F0-4D6E-A638-D119D8A2B44F";
shapes = (
{
closed = 1;
nodes = (
(30,340,o),
(32,372,o),
(31,431,cs),
(29,575,o),
(461,761,o),
(461,761,c),
(557,762,l),
(557,762,l),
(555,72,l),
(434,1,l),
(434,1,o),
(409,1,o),
(386,1,cs),
(368,1,o),
(30,95,o),
(30,273,cs)
);
},
{
closed = 1;
nodes = (
(165,380,o),
(166,340,o),
(167,305,cs),
(169,228,o),
(345,121,o),
(384,120,cs),
(413,119,o),
(434,119,o),
(434,119,c),
(431,660,l),
(431,660,o),
(165,516,o),
(165,417,cs)
);
},
{
closed = 1;
nodes = (
(326,439,l),
(728,438,l),
(673,338,l),
(500,337,l),
(497,355,l),
(270,356,l)
);
}
);
width = 758;
}
);
unicode = 71;
},
{
glyphname = H;
lastChange = "2020-03-04 22:41:05 +0000";
layers = (
{
layerId = "4CCF3E11-34F0-4D6E-A638-D119D8A2B44F";
shapes = (
{
closed = 1;
nodes = (
(167,785,l),
(216,783,l),
(235,763,l),
(234,80,l),
(123,19,l),
(124,637,l),
(30,679,l),
(167,785,l)
);
},
{
closed = 1;
nodes = (
(439,747,l),
(436,764,o),
(536,780,o),
(568,780,c),
(598,779,o),
(625,735,o),
(626,700,c),
(626,661,o),
(531,568,o),
(531,568,c),
(531,568,o),
(702,558,o),
(702,394,c),
(702,147,o),
(380,1,o),
(380,1,c),
(380,1,o),
(558,199,o),
(552,358,c),
(549,426,o),
(456,491,o),
(397,494,c),
(337,497,o),
(163,361,o),
(163,361,c),
(163,361,o),
(269,497,o),
(330,538,c),
(382,573,o),
(482,641,o),
(480,695,c),
(479,721,o),
(444,727,o),
(439,747,c)
);
}
);
width = 732;
}
);
unicode = 72;
},
{
glyphname = I;
lastChange = "2020-03-04 22:42:20 +0000";
layers = (
{
layerId = "4CCF3E11-34F0-4D6E-A638-D119D8A2B44F";
shapes = (
{
closed = 1;
nodes = (
(56,628,l),
(197,745,l),
(273,745,l),
(273,527,l),
(161,1,l),
(30,1,l),
(144,597,l),
(56,597,l),
(56,628,l)
);
}
);
width = 303;
}
);
unicode = 73;
},
{
glyphname = J;
lastChange = "2020-03-04 22:47:40 +0000";
layers = (
{
layerId = "4CCF3E11-34F0-4D6E-A638-D119D8A2B44F";
shapes = (
{
closed = 1;
nodes = (
(45,599,l),
(45,633,l),
(182,732,l),
(217,732,l),
(217,654,l),
(200,653,l),
(200,653,o),
(161,375,o),
(162,284,c),
(162,202,o),
(165,94,o),
(326,95,c),
(390,95,o),
(554,186,o),
(554,186,c),
(554,186,o),
(482,3,o),
(277,3,c),
(78,5,o),
(30,82,o),
(30,184,c),
(27,286,o),
(105,599,o),
(105,600,c),
(45,599,l)
);
},
{
closed = 1;
nodes = (
(143,412,l),
(559,412,l),
(514,337,l),
(141,337,l),
(143,414,l)
);
}
);
width = 589;
}
);
unicode = 74;
},
{
glyphname = K;
lastChange = "2020-03-04 22:49:46 +0000";
layers = (
{
layerId = "4CCF3E11-34F0-4D6E-A638-D119D8A2B44F";
shapes = (
{
closed = 1;
nodes = (
(147,723,l),
(234,723,l),
(233,622,l),
(233,622,o),
(354,724,o),
(456,723,c),
(552,723,o),
(645,690,o),
(645,554,c),
(645,307,o),
(397,334,o),
(397,334,c),
(397,334,o),
(371,209,o),
(347,143,c),
(289,-23,o),
(92,1,o),
(92,1,c),
(92,1,o),
(209,89,o),
(222,150,c),
(236,214,o),
(233,294,o),
(235,346,c),
(237,386,o),
(267,420,o),
(328,421,c),
(372,422,o),
(376,405,o),
(432,403,c),
(453,403,o),
(498,422,o),
(496,492,c),
(495,527,o),
(485,611,o),
(379,613,c),
(294,615,o),
(219,476,o),
(216,430,c),
(210,326,o),
(52,295,o),
(52,295,c),
(87,593,l),
(30,593,l),
(147,724,l)
);
}
);
width = 675;
}
);
unicode = 75;
},
{
glyphname = L;
lastChange = "2020-03-04 23:07:02 +0000";
layers = (
{
layerId = "4CCF3E11-34F0-4D6E-A638-D119D8A2B44F";
shapes = (
{
closed = 1;
nodes = (
(459,726,l),
(383,78,l),
(440,76,l),
(606,194,l),
(494,23,l),
(360,1,l),
(30,1,l),
(31,52,l),
(93,113,l),
(255,113,l),
(326,580,l),
(272,578,l),
(272,631,l),
(407,727,l),
(459,726,l)
);
}
);
width = 636;
}
);
unicode = 76;
},
{
glyphname = M;
lastChange = "2020-03-04 23:08:40 +0000";
layers = (
{
layerId = "4CCF3E11-34F0-4D6E-A638-D119D8A2B44F";
shapes = (
{
closed = 1;
nodes = (
(158,763,l),
(220,762,o),
(266,662,o),
(266,662,c),
(541,130,l),
(658,130,l),
(658,130,o),
(610,1,o),
(536,1,c),
(457,1,o),
(385,130,o),
(385,132,c),
(140,615,l),
(140,615,o),
(140,273,o),
(140,192,c),
(140,172,o),
(181,131,o),
(201,130,c),
(243,129,o),
(385,132,o),
(385,132,c),
(288,20,l),
(288,20,o),
(200,19,o),
(151,20,c),
(101,21,o),
(30,140,o),
(30,195,c),
(30,304,o),
(29,546,o),
(30,647,c),
(30,702,o),
(115,763,o),
(158,763,c)
);
},
{
closed = 1;
nodes = (
(383,745,l),
(451,751,o),
(491,676,o),
(491,676,c),
(774,130,l),
(905,130,l),
(905,130,o),
(819,-1,o),
(740,1,c),
(629,3,o),
(625,136,o),
(582,220,c),
(526,330,o),
(415,531,o),
(377,605,c),
(354,649,o),
(237,613,o),
(238,636,c),
(239,673,o),
(326,740,o),
(383,745,c)
);
}
);
width = 935;
}
);
unicode = 77;
},
{
glyphname = N;
lastChange = "2020-03-04 23:12:00 +0000";
layers = (
{
layerId = "4CCF3E11-34F0-4D6E-A638-D119D8A2B44F";
shapes = (
{
closed = 1;
nodes = (
(145,750,l),
(242,750,l),
(219,73,l),
(104,1,l),
(104,1,o),
(103,390,o),
(102,494,c),
(101,541,o),
(86,624,o),
(86,624,c),
(31,643,l),
(30,677,l),
(145,752,l)
);
},
{
closed = 1;
nodes = (
(443,750,l),
(774,750,l),
(713,660,l),
(561,660,l),
(561,660,o),
(720,479,o),
(719,377,c),
(719,257,o),
(641,100,o),
(489,100,c),
(316,101,o),
(199,303,o),
(199,303,c),
(198,413,l),
(198,413,o),
(337,235,o),
(440,235,c),
(495,235,o),
(584,281,o),
(584,411,c),
(586,607,o),
(391,646,o),
(391,646,c),
(443,751,l)
);
}
);
width = 804;
}
);
unicode = 78;
},
{
glyphname = O;
lastChange = "2020-03-04 23:13:34 +0000";
layers = (
{
layerId = "4CCF3E11-34F0-4D6E-A638-D119D8A2B44F";
shapes = (
{
closed = 1;
nodes = (
(30,471,o),
(249,725,o),
(444,725,cs),
(661,725,o),
(719,568,o),
(719,430,cs),
(719,251,o),
(519,1,o),
(311,1,cs),
(77,1,o),
(30,138,o),
(30,297,cs)
);
},
{
closed = 1;
nodes = (
(135,239,o),
(262,100,o),
(364,119,cs),
(551,154,o),
(567,218,o),
(606,353,cs),
(630,437,o),
(558,642,o),
(371,604,cs),
(237,577,o),
(164,477,o),
(148,347,cs)
);
}
);
width = 749;
}
);
unicode = 79;
},
{
glyphname = P;
lastChange = "2020-03-04 23:15:21 +0000";
layers = (
{
layerId = "4CCF3E11-34F0-4D6E-A638-D119D8A2B44F";
shapes = (
{
closed = 1;
nodes = (
(501,731,l),
(591,726,o),
(679,705,o),
(680,677,c),
(680,637,o),
(615,618,o),
(575,618,c),
(531,618,o),
(478,658,o),
(412,658,c),
(192,658,o),
(113,360,o),
(116,292,c),
(116,76,o),
(281,103,o),
(281,103,c),
(301,452,l),
(301,452,o),
(332,452,o),
(360,455,c),
(397,458,o),
(414,528,o),
(512,526,c),
(613,526,o),
(689,441,o),
(686,332,c),
(686,81,o),
(374,1,o),
(374,1,c),
(374,1,o),
(557,209,o),
(552,299,c),
(543,459,o),
(406,432,o),
(406,432,c),
(378,61,l),
(323,6,l),
(180,6,l),
(180,6,o),
(30,128,o),
(30,243,c),
(17,596,o),
(353,739,o),
(501,731,c)
);
}
);
width = 716;
}
);
unicode = 80;
},
{
glyphname = Q;
lastChange = "2020-03-04 23:18:32 +0000";
layers = (
{
layerId = "4CCF3E11-34F0-4D6E-A638-D119D8A2B44F";
shapes = (
{
closed = 1;
nodes = (
(466,761,l),
(659,764,o),
(713,647,o),
(713,587,c),
(719,489,o),
(664,421,o),
(664,421,c),
(648,97,l),
(505,17,l),
(551,129,l),
(551,421,l),
(551,421,o),
(616,453,o),
(615,577,c),
(615,681,o),
(542,708,o),
(466,709,c),
(393,709,o),
(301,635,o),
(296,528,c),
(296,499,o),
(306,449,o),
(329,449,c),
(361,450,o),
(359,483,o),
(380,483,c),
(409,484,o),
(426,483,o),
(426,481,c),
(426,481,o),
(426,345,o),
(426,271,c),
(426,199,o),
(373,117,o),
(319,68,c),
(173,-65,o),
(30,51,o),
(30,51,c),
(30,51,o),
(147,37,o),
(230,126,c),
(278,177,o),
(317,316,o),
(317,316,c),
(317,316,o),
(142,364,o),
(142,487,c),
(141,596,o),
(279,761,o),
(466,761,c)
);
}
);
width = 743;
}
);
unicode = 81;
},
{
glyphname = R;
lastChange = "2020-03-04 23:20:01 +0000";
layers = (
{
layerId = "4CCF3E11-34F0-4D6E-A638-D119D8A2B44F";
shapes = (
{
closed = 1;
nodes = (
(209,799,l),
(278,730,l),
(278,730,o),
(292,730,o),
(318,730,c),
(367,730,o),
(388,785,o),
(489,787,c),
(606,788,o),
(701,659,o),
(702,606,c),
(703,513,o),
(480,409,o),
(480,409,c),
(442,147,l),
(625,194,l),
(401,59,l),
(303,59,l),
(345,466,l),
(395,469,l),
(445,521,l),
(445,521,o),
(536,518,o),
(537,605,c),
(538,646,o),
(484,709,o),
(437,707,c),
(404,706,o),
(381,672,o),
(350,653,c),
(305,624,o),
(256,610,o),
(256,610,c),
(256,610,o),
(198,232,o),
(182,128,c),
(174,74,o),
(94,-3,o),
(68,-3,c),
(60,-2,o),
(29,15,o),
(30,31,c),
(44,155,o),
(124,672,o),
(124,672,c),
(48,672,l),
(209,799,l)
);
}
);
width = 732;
}
);
unicode = 82;
},
{
glyphname = S;
lastChange = "2020-03-04 23:21:49 +0000";
layers = (
{
layerId = "4CCF3E11-34F0-4D6E-A638-D119D8A2B44F";
shapes = (
{
closed = 1;
nodes = (
(411,754,l),
(498,754,o),
(655,741,o),
(659,652,c),
(659,607,o),
(596,532,o),
(596,532,c),
(596,532,o),
(507,680,o),
(393,680,c),
(330,678,o),
(230,605,o),
(225,502,c),
(219,398,o),
(194,85,o),
(194,85,c),
(30,1,l),
(30,1,o),
(93,406,o),
(116,544,c),
(134,652,o),
(322,751,o),
(411,754,c)
);
},
{
closed = 1;
nodes = (
(436,492,l),
(649,493,o),
(628,367,o),
(625,290,c),
(625,161,o),
(410,29,o),
(410,29,c),
(306,29,l),
(306,29,o),
(479,206,o),
(479,285,c),
(481,336,o),
(436,384,o),
(392,384,c),
(350,384,o),
(186,268,o),
(186,268,c),
(182,403,l),
(182,403,o),
(211,422,o),
(248,433,c),
(296,448,o),
(315,492,o),
(436,492,c)
);
}
);
width = 689;
}
);
unicode = 83;
},
{
glyphname = T;
lastChange = "2020-03-04 23:26:22 +0000";
layers = (
{
layerId = "4CCF3E11-34F0-4D6E-A638-D119D8A2B44F";
shapes = (
{
closed = 1;
nodes = (
(352,778,l),
(440,778,o),
(578,726,o),
(577,642,c),
(577,504,o),
(577,74,o),
(577,74,c),
(463,1,l),
(463,1,o),
(464,451,o),
(464,570,c),
(463,669,o),
(359,706,o),
(290,706,c),
(218,709,o),
(30,594,o),
(30,594,c),
(30,594,o),
(198,774,o),
(352,778,c)
);
}
);
width = 607;
}
);
unicode = 84;
},
{
glyphname = U;
lastChange = "2020-03-04 23:30:10 +0000";
layers = (
{
layerId = "4CCF3E11-34F0-4D6E-A638-D119D8A2B44F";
shapes = (
{
closed = 1;
nodes = (
(315,615,l),
(315,615,o),
(448,765,o),
(534,765,c),
(623,765,o),
(800,598,o),
(797,434,c),
(797,258,o),
(597,1,o),
(379,1,c),
(245,3,o),
(30,133,o),
(30,234,c),
(29,345,o),
(178,497,o),
(180,565,c),
(181,590,o),
(182,624,o),
(182,620,c),
(71,620,l),
(71,620,o),
(142,763,o),
(208,762,c),
(267,762,o),
(297,714,o),
(296,668,c),
(293,550,o),
(175,436,o),
(174,318,c),
(173,217,o),
(227,60,o),
(382,67,c),
(552,75,o),
(652,300,o),
(652,401,c),
(649,573,o),
(515,637,o),
(453,638,c),
(396,639,o),
(315,615,o),
(315,615,c)
);
},
{
closed = 1;
nodes = (
(455,661,l),
(459,59,l),
(343,57,l),
(315,614,l),
(455,661,l)
);
}
);
width = 827;
}
);
unicode = 85;
},
{
glyphname = V;
lastChange = "2020-03-07 17:31:39 +0000";
layers = (
{
layerId = "4CCF3E11-34F0-4D6E-A638-D119D8A2B44F";
shapes = (
{
closed = 1;
nodes = (
(585,760,l),
(733,760,o),
(740,672,o),
(740,591,c),
(739,525,o),
(700,412,o),
(623,363,c),
(486,277,o),
(30,1,o),
(30,1,c),
(65,700,l),
(147,759,l),
(224,760,l),
(124,139,l),
(124,139,o),
(358,274,o),
(443,326,c),
(511,367,o),
(574,453,o),
(576,518,c),
(579,582,o),
(526,620,o),
(480,619,c),
(427,617,o),
(265,469,o),
(265,469,c),
(265,469,o),
(371,764,o),
(585,760,c)
);
}
);
width = 770;
}
);
unicode = 86;
},
{
glyphname = W;
lastChange = "2020-03-07 17:32:04 +0000";
layers = (
{
layerId = "4CCF3E11-34F0-4D6E-A638-D119D8A2B44F";
shapes = (
{
closed = 1;
nodes = (
(700,715,l),
(777,715,o),
(829,631,o),
(829,554,c),
(829,492,o),
(766,387,o),
(689,327,c),
(503,179,o),
(275,1,o),
(275,9,c),
(275,9,o),
(529,275,o),
(603,355,c),
(639,395,o),
(685,447,o),
(685,511,c),
(684,560,o),
(652,583,o),
(624,584,c),
(594,585,o),
(516,579,o),
(516,579,c),
(516,579,o),
(607,716,o),
(700,714,c)
);
},
{
closed = 1;
nodes = (
(461,715,l),
(529,715,o),
(581,659,o),
(581,607,c),
(581,506,o),
(538,418,o),
(474,365,c),
(370,276,o),
(30,1,o),
(30,1,c),
(91,595,l),
(47,628,l),
(47,628,o),
(147,720,o),
(178,720,c),
(224,719,o),
(227,665,o),
(221,635,c),
(207,547,o),
(159,196,o),
(159,196,c),
(159,196,o),
(274,290,o),
(367,376,c),
(407,414,o),
(436,471,o),
(436,513,c),
(436,573,o),
(414,618,o),
(383,618,c),
(353,619,o),
(268,576,o),
(268,576,c),
(268,576,o),
(379,718,o),
(461,719,c)
);
}
);
width = 859;
}
);
unicode = 87;
},
{
glyphname = X;
lastChange = "2020-03-07 17:32:37 +0000";
layers = (
{
layerId = "4CCF3E11-34F0-4D6E-A638-D119D8A2B44F";
shapes = (
{
closed = 1;
nodes = (
(677,679,l),
(741,679,o),
(816,676,o),
(816,627,c),
(816,438,o),
(229,256,o),
(225,80,c),
(224,58,o),
(291,33,o),
(291,33,c),
(291,33,o),
(222,2,o),
(169,1,c),
(120,0,o),
(39,4,o),
(39,52,c),
(38,264,o),
(620,482,o),
(620,581,c),
(620,628,o),
(568,642,o),
(568,642,c),
(568,642,o),
(640,680,o),
(677,679,c)
);
},
{
closed = 1;
nodes = (
(254,712,l),
(351,712,o),
(453,575,o),
(520,426,c),
(590,270,o),
(660,130,o),
(709,127,c),
(754,127,o),
(840,179,o),
(840,179,c),
(840,179,o),
(742,2,o),
(656,1,c),
(481,1,o),
(398,164,o),
(342,316,c),
(294,444,o),
(250,551,o),
(155,551,c),
(108,551,o),
(30,493,o),
(30,493,c),
(30,493,o),
(70,712,o),
(254,712,c)
);
}
);
width = 870;
}
);
unicode = 88;
},
{
glyphname = Y;
lastChange = "2020-03-07 17:32:57 +0000";
layers = (
{
layerId = "4CCF3E11-34F0-4D6E-A638-D119D8A2B44F";
shapes = (
{
closed = 1;
nodes = (
(617,737,l),
(682,737,o),
(748,680,o),
(747,618,c),
(747,427,o),
(445,309,o),
(349,239,c),
(304,206,o),
(278,158,o),
(220,96,c),
(117,-14,o),
(30,1,o),
(30,1,c),
(30,1,o),
(116,133,o),
(134,208,c),
(157,307,o),
(170,595,o),
(170,595,c),
(109,595,l),
(109,595,o),
(169,734,o),
(261,737,c),
(294,737,o),
(312,669,o),
(312,621,c),
(311,581,o),
(279,502,o),
(276,450,c),
(271,369,o),
(270,294,o),
(270,294,c),
(270,294,o),
(349,319,o),
(425,381,c),
(479,426,o),
(589,520,o),
(589,563,c),
(589,608,o),
(565,634,o),
(536,634,c),
(517,634,o),
(484,596,o),
(453,595,c),
(423,594,o),
(398,594,o),
(398,594,c),
(398,594,o),
(516,737,o),
(617,736,c)
);
}
);
width = 777;
}
);
unicode = 89;
},
{
glyphname = Z;
lastChange = "2020-03-07 17:33:34 +0000";
layers = (
{
layerId = "4CCF3E11-34F0-4D6E-A638-D119D8A2B44F";
shapes = (
{
closed = 1;
nodes = (
(30,167,o),
(129,291,o),
(182,340,cs),
(328,475,o),
(499,517,o),
(563,486,cs),
(592,472,o),
(589,471,o),
(589,471,c),
(589,471,o),
(751,586,o),
(768,603,cs),
(778,613,o),
(711,590,o),
(696,590,cs),
(609,590,o),
(249,589,o),
(249,589,c),
(249,589,o),
(420,735,o),
(470,733,cs),
(502,732,o),
(532,672,o),
(532,672,c),
(532,672,o),
(629,668,o),
(665,672,cs),
(684,674,o),
(710,694,o),
(735,694,cs),
(769,694,o),
(851,676,o),
(851,631,cs),
(851,614,o),
(820,590,o),
(791,555,cs),
(737,490,o),
(631,387,o),
(631,387,c),
(611,150,l),
(611,150,o),
(681,147,o),
(705,148,cs),
(733,149,o),
(817,168,o),
(817,168,c),
(457,2,l),
(480,276,l),
(480,276,l),
(480,276,o),
(362,159,o),
(302,113,cs),
(248,72,o),
(190,3,o),
(124,2,cs),
(80,1,o),
(30,60,o),
(30,103,cs)
);
},
{
closed = 1;
nodes = (
(181,109,o),
(282,186,o),
(335,225,cs),
(385,262,o),
(484,362,o),
(484,362,c),
(484,362,o),
(467,400,o),
(410,396,cs),
(370,393,o),
(300,344,o),
(254,306,cs),
(203,264,o),
(106,174,o),
(151,135,cs)
);
}
);
width = 881;
}
);
unicode = 90;
},
{
glyphname = a;
lastChange = "2020-03-04 23:57:32 +0000";
layers = (
{
layerId = "4CCF3E11-34F0-4D6E-A638-D119D8A2B44F";
shapes = (
{
closed = 1;
nodes = (
(124,76,l),
(124,424,l),
(51,463,l),
(151,573,l),
(214,573,l),
(215,573,l),
(214,92,l),
(30,-116,l)
);
},
{
closed = 1;
nodes = (
(187,293,o),
(290,386,o),
(388,385,c),
(388,385,l),
(448,385,o),
(532,326,o),
(531,249,cs),
(530,175,o),
(468,89,o),
(358,85,cs),
(277,82,o),
(191,190,o),
(191,190,c),
(187,293,l)
);
},
{
closed = 1;
nodes = (
(194,430,o),
(288,552,o),
(392,556,c),
(392,556,l),
(445,558,o),
(512,529,o),
(512,504,cs),
(512,489,o),
(517,471,o),
(506,464,cs),
(496,457,o),
(484,456,o),
(444,465,cs),
(416,471,o),
(397,492,o),
(355,490,cs),
(299,487,o),
(194,346,o),
(194,346,c),
(194,430,l)
);
},
{
closed = 1;
nodes = (
(233,250,o),
(336,138,o),
(381,148,cs),
(408,154,o),
(419,177,o),
(425,210,cs),
(434,257,o),
(396,317,o),
(340,316,cs),
(299,315,o),
(233,250,o),
(233,250,c)
);
}
);
width = 561;
}
);
unicode = 97;
},
{
glyphname = b;
lastChange = "2020-03-04 23:56:15 +0000";
layers = (
{
layerId = "4CCF3E11-34F0-4D6E-A638-D119D8A2B44F";
shapes = (
{
closed = 1;
nodes = (
(367,582,l),
(310,208,l),
(206,134,l),
(206,134,o),
(213,246,o),
(224,301,c),
(236,357,o),
(273,470,o),
(273,470,c),
(199,493,l),
(316,581,l),
(367,582,l)
);
},
{
closed = 1;
nodes = (
(366,418,l),
(420,419,o),
(498,368,o),
(498,320,c),
(498,241,o),
(422,141,o),
(365,135,c),
(319,131,o),
(206,134,o),
(206,134,c),
(291,208,l),
(291,208,o),
(357,209,o),
(378,209,c),
(401,210,o),
(405,261,o),
(405,287,c),
(405,313,o),
(378,359,o),
(348,358,c),
(300,357,o),
(141,261,o),
(140,161,c),
(139,112,o),
(204,58,o),
(249,58,c),
(296,58,o),
(408,115,o),
(408,115,c),
(408,115,o),
(328,0,o),
(204,1,c),
(141,1,o),
(26,36,o),
(30,103,c),
(37,239,o),
(280,416,o),
(366,418,c)
);
}
);
width = 528;
}
);
unicode = 98;
},
{
glyphname = c;
lastChange = "2020-03-04 23:58:19 +0000";
layers = (
{
layerId = "4CCF3E11-34F0-4D6E-A638-D119D8A2B44F";
shapes = (
{
closed = 1;
nodes = (
(402,556,l),
(402,201,l),
(311,163,l),
(309,481,l),
(309,481,o),
(140,449,o),
(140,262,c),
(140,141,o),
(309,1,o),
(309,1,c),
(309,1,o),
(26,14,o),
(30,230,c),
(33,342,o),
(135,454,o),
(220,504,c),
(278,538,o),
(328,538,o),
(328,538,c),
(329,555,l),
(402,556,l)
);
}
);
width = 432;
}
);
unicode = 99;
},
{
glyphname = d;
lastChange = "2020-03-04 23:59:26 +0000";
layers = (
{
layerId = "4CCF3E11-34F0-4D6E-A638-D119D8A2B44F";
shapes = (
{
closed = 1;
nodes = (
(367,652,l),
(385,60,l),
(311,2,l),
(276,94,l),
(274,522,l),
(183,556,l),
(296,652,l),
(367,652,l)
);
},
{
closed = 1;
nodes = (
(279,88,l),
(311,1,l),
(311,1,o),
(204,1,o),
(149,1,c),
(98,2,o),
(29,83,o),
(30,143,c),
(32,350,o),
(326,449,o),
(419,448,c),
(469,447,o),
(533,420,o),
(533,392,c),
(534,372,o),
(484,336,o),
(460,337,c),
(434,338,o),
(401,376,o),
(372,375,c),
(313,374,o),
(144,301,o),
(141,183,c),
(139,138,o),
(193,77,o),
(220,76,c),
(257,74,o),
(279,88,o),
(279,88,c)
);
}
);
width = 563;
}
);
unicode = 100;
},
{
glyphname = e;
lastChange = "2020-03-07 17:28:08 +0000";
layers = (
{
layerId = "4CCF3E11-34F0-4D6E-A638-D119D8A2B44F";
shapes = (
{
closed = 1;
nodes = (
(237,494,l),
(317,494,o),
(491,437,o),
(490,255,c),
(490,37,o),
(183,1,o),
(183,1,c),
(183,1,o),
(360,76,o),
(358,213,c),
(356,394,o),
(262,432,o),
(192,431,c),
(132,429,o),
(69,311,o),
(69,311,c),
(30,311,l),
(30,391,l),
(57,391,l),
(57,391,o),
(134,494,o),
(237,494,c)
);
},
{
closed = 1;
nodes = (
(116,281,l),
(379,281,l),
(386,198,l),
(59,198,l),
(116,281,l)
);
}
);
width = 520;
}
);
unicode = 101;
},
{
glyphname = f;
lastChange = "2020-03-05 00:04:08 +0000";
layers = (
{
layerId = "4CCF3E11-34F0-4D6E-A638-D119D8A2B44F";
shapes = (
{
closed = 1;
nodes = (
(286,629,l),
(353,631,o),
(461,584,o),
(477,511,c),
(486,468,o),
(440,404,o),
(425,404,c),
(409,405,o),
(392,442,o),
(381,485,c),
(371,526,o),
(324,561,o),
(272,556,c),
(206,550,o),
(190,483,o),
(182,424,c),
(168,335,o),
(128,37,o),
(128,37,c),
(85,1,l),
(30,1,l),
(30,1,o),
(72,328,o),
(89,440,c),
(105,543,o),
(219,627,o),
(286,629,c)
);
}
);
width = 508;
}
);
unicode = 102;
},
{
glyphname = g;
lastChange = "2020-03-07 17:30:11 +0000";
layers = (
{
layerId = "4CCF3E11-34F0-4D6E-A638-D119D8A2B44F";
shapes = (
{
closed = 1;
nodes = (
(460,499,l),
(448,152,l),
(318,98,l),
(318,242,l),
(349,242,l),
(349,415,l),
(349,415,o),
(147,392,o),
(151,180,c),
(151,11,o),
(330,-118,o),
(330,-118,c),
(330,-118,o),
(30,-66,o),
(30,151,c),
(39,406,o),
(389,483,o),
(389,483,c),
(392,499,l),
(460,499,l)
);
},
{
closed = 1;
nodes = (
(555,371,l),
(555,298,l),
(245,298,l),
(299,371,l),
(555,368,l)
);
}
);
width = 585;
}
);
unicode = 103;
},
{
glyphname = h;
lastChange = "2020-03-05 00:07:53 +0000";
layers = (
{
layerId = "4CCF3E11-34F0-4D6E-A638-D119D8A2B44F";
shapes = (
{
closed = 1;
nodes = (
(183,650,l),
(183,131,l),
(197,130,l),
(197,56,l),
(102,1,l),
(102,518,l),
(30,549,l),
(147,651,l),
(188,650,l)
);
},
{
closed = 1;
nodes = (
(428,445,l),
(438,445,o),
(458,433,o),
(458,419,c),
(459,389,o),
(387,324,o),
(338,294,c),
(269,251,o),
(163,209,o),
(163,209,c),
(163,209,o),
(141,238,o),
(163,254,c),
(196,278,o),
(254,294,o),
(280,315,c),
(309,338,o),
(350,375,o),
(350,390,c),
(350,405,o),
(311,415,o),
(311,415,c),
(311,415,o),
(385,424,o),
(406,427,c),
(412,428,o),
(421,446,o),
(428,445,c)
);
},
{
closed = 1;
nodes = (
(347,327,l),
(347,327,o),
(528,261,o),
(528,194,c),
(527,32,o),
(304,1,o),
(304,7,c),
(304,7,o),
(412,90,o),
(412,163,c),
(411,234,o),
(313,297,o),
(313,297,c),
(347,327,l)
);
}
);
width = 558;
}
);
unicode = 104;
},
{
glyphname = i;
lastChange = "2020-03-05 00:09:33 +0000";
layers = (
{
layerId = "4CCF3E11-34F0-4D6E-A638-D119D8A2B44F";
shapes = (
{
closed = 1;
nodes = (
(223,617,l),
(256,617,o),
(308,590,o),
(309,557,c),
(310,463,o),
(309,64,o),
(309,64,c),
(181,1,l),
(181,486,l),
(181,486,o),
(156,486,o),
(131,485,c),
(110,485,o),
(91,446,o),
(80,447,c),
(62,447,o),
(31,466,o),
(31,481,c),
(30,495,o),
(30,524,o),
(30,524,c),
(119,525,l),
(119,525,o),
(190,618,o),
(223,617,c)
);
}
);
width = 339;
}
);
unicode = 105;
},
{
glyphname = j;
lastChange = "2020-03-05 00:11:33 +0000";
layers = (
{
layerId = "4CCF3E11-34F0-4D6E-A638-D119D8A2B44F";
shapes = (
{
closed = 1;
nodes = (
(200,634,l),
(200,634,o),
(200,516,o),
(199,442,c),
(199,378,o),
(144,261,o),
(144,208,c),
(145,159,o),
(231,111,o),
(292,112,c),
(352,112,o),
(499,165,o),
(499,165,c),
(499,165,o),
(375,1,o),
(252,1,c),
(174,-1,o),
(35,96,o),
(46,184,c),
(53,245,o),
(100,367,o),
(102,441,c),
(104,490,o),
(104,507,o),
(104,507,c),
(53,507,l),
(30,550,l),
(86,559,l),
(165,634,l),
(200,634,l)
);
},
{
closed = 1;
nodes = (
(438,375,l),
(464,375,o),
(496,363,o),
(497,344,c),
(498,331,o),
(445,299,o),
(426,300,c),
(367,300,o),
(146,300,o),
(146,301,c),
(160,375,l),
(160,375,o),
(380,373,o),
(438,374,c)
);
}
);
width = 529;
}
);
unicode = 106;
},
{
glyphname = k;
lastChange = "2020-03-05 00:14:06 +0000";
layers = (
{
layerId = "4CCF3E11-34F0-4D6E-A638-D119D8A2B44F";
shapes = (
{
closed = 1;
nodes = (
(163,591,l),
(163,591,o),
(194,537,o),
(204,519,c),
(221,490,o),
(320,594,o),
(365,593,c),
(408,592,o),
(475,527,o),
(475,474,c),
(474,262,o),
(293,251,o),
(293,251,c),
(293,251,o),
(294,218,o),
(295,193,c),
(296,152,o),
(223,61,o),
(172,26,c),
(108,-18,o),
(55,1,o),
(55,1,c),
(184,147,l),
(184,147,o),
(181,253,o),
(182,287,c),
(183,310,o),
(208,334,o),
(243,342,c),
(296,356,o),
(355,386,o),
(355,430,c),
(355,452,o),
(331,477,o),
(309,478,c),
(294,479,o),
(263,452,o),
(234,433,c),
(209,416,o),
(184,405,o),
(184,405,c),
(142,275,l),
(69,236,l),
(89,441,l),
(30,494,l),
(163,591,l)
);
}
);
width = 505;
}
);
unicode = 107;
},
{
glyphname = l;
lastChange = "2020-03-05 09:19:53 +0000";
layers = (
{
layerId = "4CCF3E11-34F0-4D6E-A638-D119D8A2B44F";
shapes = (
{
closed = 1;
nodes = (
(152,713,l),
(180,687,l),
(180,79,l),
(387,79,l),
(322,1,l),
(88,1,l),
(88,558,l),
(30,581,l),
(30,608,l),
(152,713,l)
);
}
);
width = 417;
}
);
unicode = 108;
},
{
glyphname = m;
lastChange = "2020-03-05 09:21:21 +0000";
layers = (
{
layerId = "4CCF3E11-34F0-4D6E-A638-D119D8A2B44F";
shapes = (
{
closed = 1;
nodes = (
(403,488,l),
(493,488,o),
(537,334,o),
(556,262,c),
(596,119,o),
(709,90,o),
(709,90,c),
(709,90,o),
(640,22,o),
(597,22,c),
(540,20,o),
(460,169,o),
(437,241,c),
(417,303,o),
(384,418,o),
(348,417,c),
(304,416,o),
(276,369,o),
(276,369,c),
(276,369,o),
(241,419,o),
(249,432,c),
(266,459,o),
(337,489,o),
(403,488,c)
);
},
{
closed = 1;
nodes = (
(177,506,l),
(268,506,o),
(297,394,o),
(324,281,c),
(360,132,o),
(485,66,o),
(485,66,c),
(485,66,o),
(425,22,o),
(391,22,c),
(317,25,o),
(226,208,o),
(220,230,c),
(198,301,o),
(204,394,o),
(157,394,c),
(140,393,o),
(112,339,o),
(113,260,c),
(113,208,o),
(100,85,o),
(180,84,c),
(200,83,o),
(252,96,o),
(252,96,c),
(252,96,o),
(215,1,o),
(163,1,c),
(123,1,o),
(30,82,o),
(30,156,c),
(32,315,o),
(60,505,o),
(177,506,c)
);
}
);
width = 739;
}
);
unicode = 109;
},
{
glyphname = n;
lastChange = "2020-03-07 17:26:35 +0000";
layers = (
{
layerId = "4CCF3E11-34F0-4D6E-A638-D119D8A2B44F";
shapes = (
{
closed = 1;
nodes = (
(370,479,l),
(590,479,l),
(533,395,l),
(343,395,l),
(323,413,l),
(370,479,l)
);
},
{
closed = 1;
nodes = (
(430,410,l),
(430,410,o),
(537,303,o),
(535,235,c),
(535,134,o),
(468,41,o),
(360,44,c),
(285,45,o),
(172,183,o),
(172,183,c),
(167,407,l),
(167,407,o),
(217,161,o),
(334,163,c),
(398,164,o),
(442,230,o),
(442,271,c),
(442,336,o),
(368,411,o),
(368,411,c),
(430,410,l)
);
},
{
closed = 1;
nodes = (
(200,479,l),
(200,62,l),
(100,1,l),
(100,335,l),
(74,380,l),
(30,380,l),
(30,408,l),
(57,408,l),
(140,479,l),
(200,479,l)
);
}
);
width = 620;
}
);
unicode = 110;
},
{
glyphname = o;
lastChange = "2020-03-05 09:27:15 +0000";
layers = (
{
layerId = "4CCF3E11-34F0-4D6E-A638-D119D8A2B44F";
shapes = (
{
closed = 1;
nodes = (
(30,465,o),
(255,581,o),
(378,581,cs),
(477,581,o),
(535,470,o),
(535,361,cs),
(535,250,o),
(394,3,o),
(189,3,cs),
(79,3,o),
(30,122,o),
(30,222,cs)
);
},
{
closed = 1;
nodes = (
(122,130,o),
(247,103,o),
(302,113,cs),
(375,126,o),
(408,183,o),
(429,271,cs),
(450,358,o),
(373,493,o),
(276,468,cs),
(200,448,o),
(156,383,o),
(142,278,cs)
);
}
);
width = 565;
}
);
unicode = 111;
},
{
glyphname = p;
lastChange = "2020-03-07 17:29:41 +0000";
layers = (
{
layerId = "4CCF3E11-34F0-4D6E-A638-D119D8A2B44F";
shapes = (
{
closed = 1;
nodes = (
(279,499,l),
(340,498,o),
(458,476,o),
(458,451,c),
(459,420,o),
(430,397,o),
(403,397,c),
(374,397,o),
(349,460,o),
(286,461,c),
(234,461,o),
(105,377,o),
(105,254,c),
(104,141,o),
(182,104,o),
(257,108,c),
(333,111,o),
(401,162,o),
(398,222,c),
(395,274,o),
(346,280,o),
(332,276,c),
(320,272,o),
(308,237,o),
(308,237,c),
(332,328,l),
(332,328,o),
(479,345,o),
(480,244,c),
(481,117,o),
(337,59,o),
(251,61,c),
(176,62,o),
(25,118,o),
(30,248,c),
(35,384,o),
(177,500,o),
(279,499,c)
);
},
{
closed = 1;
nodes = (
(332,328,l),
(332,328,o),
(336,311,o),
(330,290,c),
(325,273,o),
(311,253,o),
(308,237,c),
(299,186,o),
(296,79,o),
(261,16,c),
(186,-120,o),
(87,-137,o),
(87,-137,c),
(87,-137,o),
(173,-42,o),
(210,28,c),
(235,76,o),
(229,196,o),
(236,249,c),
(246,324,o),
(332,328,o),
(332,328,c)
);
}
);
width = 510;
}
);
unicode = 112;
},
{
glyphname = q;
lastChange = "2020-03-07 17:29:11 +0000";
layers = (
{
layerId = "4CCF3E11-34F0-4D6E-A638-D119D8A2B44F";
shapes = (
{
closed = 1;
nodes = (
(273,499,l),
(388,499,o),
(464,440,o),
(464,338,c),
(467,54,o),
(327,26,o),
(327,26,c),
(327,26,o),
(363,207,o),
(362,282,c),
(362,344,o),
(353,445,o),
(269,445,c),
(128,446,o),
(114,254,o),
(124,251,c),
(144,245,o),
(154,275,o),
(177,276,c),
(204,276,o),
(220,232,o),
(219,204,c),
(219,154,o),
(195,18,o),
(163,-31,c),
(110,-110,o),
(30,-99,o),
(30,-99,c),
(30,-99,o),
(82,-55,o),
(114,6,c),
(148,70,o),
(142,162,o),
(142,162,c),
(142,162,o),
(28,130,o),
(32,264,c),
(35,370,o),
(161,498,o),
(273,499,c)
);
}
);
width = 494;
}
);
unicode = 113;
},
{
glyphname = r;
lastChange = "2020-03-07 17:28:42 +0000";
layers = (
{
layerId = "4CCF3E11-34F0-4D6E-A638-D119D8A2B44F";
shapes = (
{
closed = 1;
nodes = (
(302,490,l),
(363,490,o),
(466,438,o),
(468,370,c),
(468,299,o),
(359,248,o),
(359,248,c),
(359,248,o),
(359,34,o),
(359,-26,c),
(359,-53,o),
(391,-81,o),
(418,-82,c),
(453,-83,o),
(531,-46,o),
(531,-46,c),
(531,-46,o),
(464,-130,o),
(410,-132,c),
(368,-132,o),
(282,-64,o),
(282,-13,c),
(282,52,o),
(281,251,o),
(282,251,c),
(252,255,l),
(293,293,l),
(293,293,o),
(368,309,o),
(368,366,c),
(368,396,o),
(349,439,o),
(284,439,c),
(194,440,o),
(159,326,o),
(159,326,c),
(149,406,l),
(149,406,o),
(246,491,o),
(302,490,c)
);
},
{
closed = 1;
nodes = (
(170,495,l),
(170,124,l),
(88,85,l),
(88,381,l),
(30,408,l),
(121,495,l),
(172,495,l)
);
}
);
width = 561;
}
);
unicode = 114;
},
{
glyphname = s;
lastChange = "2020-03-05 19:04:23 +0000";
layers = (
{
layerId = "4CCF3E11-34F0-4D6E-A638-D119D8A2B44F";
shapes = (
{
closed = 1;
nodes = (
(278,552,l),
(356,554,o),
(464,504,o),
(490,473,c),
(515,442,o),
(468,375,o),
(429,373,c),
(384,372,o),
(363,484,o),
(239,482,c),
(195,482,o),
(139,442,o),
(140,398,c),
(141,332,o),
(140,84,o),
(140,84,c),
(30,6,l),
(30,6,o),
(29,288,o),
(30,379,c),
(31,479,o),
(197,551,o),
(278,552,c)
);
},
{
closed = 1;
nodes = (
(326,325,l),
(392,324,o),
(501,269,o),
(503,197,c),
(506,35,o),
(258,1,o),
(258,1,c),
(258,1,o),
(394,102,o),
(392,168,c),
(391,212,o),
(321,260,o),
(276,261,c),
(230,262,o),
(117,177,o),
(117,177,c),
(107,232,l),
(107,232,o),
(260,327,o),
(326,325,c)
);
}
);
width = 533;
}
);
unicode = 115;
},
{
glyphname = t;
lastChange = "2020-03-05 19:05:39 +0000";
layers = (
{
layerId = "4CCF3E11-34F0-4D6E-A638-D119D8A2B44F";
shapes = (
{
closed = 1;
nodes = (
(236,646,l),
(318,649,o),
(413,599,o),
(413,517,c),
(412,417,o),
(413,30,o),
(412,30,c),
(338,1,l),
(338,1,o),
(340,372,o),
(338,470,c),
(337,542,o),
(275,580,o),
(205,578,c),
(106,576,o),
(30,508,o),
(30,508,c),
(30,508,o),
(101,641,o),
(236,646,c)
);
}
);
width = 443;
}
);
unicode = 116;
},
{
glyphname = u;
lastChange = "2020-03-05 19:07:03 +0000";
layers = (
{
layerId = "4CCF3E11-34F0-4D6E-A638-D119D8A2B44F";
shapes = (
{
closed = 1;
nodes = (
(488,484,l),
(547,484,o),
(643,398,o),
(627,329,c),
(551,-6,o),
(320,17,o),
(320,17,c),
(320,17,o),
(495,170,o),
(496,286,c),
(496,326,o),
(493,379,o),
(416,377,c),
(348,376,o),
(327,244,o),
(328,183,c),
(328,109,o),
(328,2,o),
(265,1,c),
(214,1,o),
(29,13,o),
(30,142,c),
(31,266,o),
(127,327,o),
(144,375,c),
(160,420,o),
(84,425,o),
(85,447,c),
(85,471,o),
(134,504,o),
(178,504,c),
(214,504,o),
(266,485,o),
(261,448,c),
(248,362,o),
(102,287,o),
(106,170,c),
(107,126,o),
(151,69,o),
(194,69,c),
(216,69,o),
(235,171,o),
(235,225,c),
(236,343,o),
(402,483,o),
(488,484,c)
);
}
);
width = 659;
}
);
unicode = 117;
},
{
glyphname = v;
lastChange = "2020-03-05 19:09:21 +0000";
layers = (
{
layerId = "4CCF3E11-34F0-4D6E-A638-D119D8A2B44F";
shapes = (
{
closed = 1;
nodes = (
(482,487,l),
(523,487,o),
(612,451,o),
(612,396,c),
(612,340,o),
(430,194,o),
(356,148,c),
(297,111,o),
(239,97,o),
(199,71,c),
(172,53,o),
(134,1,o),
(134,1,c),
(134,1,o),
(110,23,o),
(110,34,c),
(109,94,o),
(107,359,o),
(107,359,c),
(30,357,l),
(30,357,o),
(136,470,o),
(168,471,c),
(186,471,o),
(219,439,o),
(217,401,c),
(216,381,o),
(197,361,o),
(197,355,c),
(194,310,o),
(183,94,o),
(183,94,c),
(183,94,o),
(288,146,o),
(333,182,c),
(382,221,o),
(470,287,o),
(472,324,c),
(476,434,o),
(361,416,o),
(361,416,c),
(361,416,o),
(440,487,o),
(482,487,c)
);
}
);
width = 642;
}
);
unicode = 118;
},
{
glyphname = w;
lastChange = "2020-03-05 19:14:20 +0000";
layers = (
{
layerId = "4CCF3E11-34F0-4D6E-A638-D119D8A2B44F";
shapes = (
{
closed = 1;
nodes = (
(521,427,l),
(559,428,o),
(624,354,o),
(623,305,c),
(622,248,o),
(463,142,o),
(364,82,c),
(217,-6,o),
(166,1,o),
(166,1,c),
(166,1,o),
(259,46,o),
(349,105,c),
(441,165,o),
(531,237,o),
(531,275,c),
(530,334,o),
(411,319,o),
(411,319,c),
(411,319,o),
(486,426,o),
(521,427,c)
);
},
{
closed = 1;
nodes = (
(344,427,l),
(376,427,o),
(440,367,o),
(442,304,c),
(445,196,o),
(328,176,o),
(258,128,c),
(188,80,o),
(51,1,o),
(51,3,c),
(71,278,l),
(30,336,l),
(30,336,o),
(72,337,o),
(87,347,c),
(103,358,o),
(111,399,o),
(126,398,c),
(138,398,o),
(158,371,o),
(158,356,c),
(159,309,o),
(142,106,o),
(142,106,c),
(142,106,o),
(219,142,o),
(256,168,c),
(292,193,o),
(346,251,o),
(347,276,c),
(348,322,o),
(253,316,o),
(253,316,c),
(253,316,o),
(312,426,o),
(344,427,c)
);
}
);
width = 653;
}
);
unicode = 119;
},
{
glyphname = x;
lastChange = "2020-03-05 19:16:05 +0000";
layers = (
{
layerId = "4CCF3E11-34F0-4D6E-A638-D119D8A2B44F";
shapes = (
{
closed = 1;
nodes = (
(160,495,l),
(313,494,o),
(383,100,o),
(482,98,c),
(510,98,o),
(554,116,o),
(554,116,c),
(534,96,o),
(531,5,o),
(446,5,c),
(275,5,o),
(259,386,o),
(114,385,c),
(85,384,o),
(31,363,o),
(31,363,c),
(31,363,o),
(105,495,o),
(160,495,c)
);
},
{
closed = 1;
nodes = (
(403,454,l),
(401,478,o),
(568,490,o),
(570,435,c),
(573,280,o),
(182,230,o),
(179,70,c),
(179,57,o),
(201,50,o),
(201,37,c),
(201,-6,o),
(30,-9,o),
(30,48,c),
(32,192,o),
(425,276,o),
(424,403,c),
(424,448,o),
(405,433,o),
(403,454,c)
);
}
);
width = 600;
}
);
unicode = 120;
},
{
glyphname = y;
lastChange = "2020-03-05 19:17:08 +0000";
layers = (
{
layerId = "4CCF3E11-34F0-4D6E-A638-D119D8A2B44F";
shapes = (
{
closed = 1;
nodes = (
(410,499,l),
(445,499,o),
(498,464,o),
(498,426,c),
(497,332,o),
(335,248,o),
(276,190,c),
(233,149,o),
(192,107,o),
(170,74,c),
(158,55,o),
(146,8,o),
(128,-9,c),
(107,-28,o),
(31,-53,o),
(30,-39,c),
(26,4,o),
(99,48,o),
(104,93,c),
(111,168,o),
(124,342,o),
(128,399,c),
(129,412,o),
(81,403,o),
(88,415,c),
(99,438,o),
(174,498,o),
(199,499,c),
(233,500,o),
(236,465,o),
(234,421,c),
(228,327,o),
(201,171,o),
(201,171,c),
(201,171,o),
(364,314,o),
(366,372,c),
(367,397,o),
(359,424,o),
(345,424,c),
(332,425,o),
(289,396,o),
(289,413,c),
(290,461,o),
(376,498,o),
(410,499,c)
);
}
);
width = 528;
}
);
unicode = 121;
},
{
glyphname = z;
lastChange = "2020-03-05 19:19:26 +0000";
layers = (
{
layerId = "4CCF3E11-34F0-4D6E-A638-D119D8A2B44F";
shapes = (
{
closed = 1;
nodes = (
(-58,25,o),
(92,233,o),
(190,292,cs),
(250,328,o),
(409,346,o),
(409,346,c),
(487,424,l),
(176,424,l),
(176,424,o),
(273,517,o),
(302,519,cs),
(318,520,o),
(328,499,o),
(340,499,cs),
(389,499,o),
(593,499,o),
(592,499,c),
(593,440,l),
(453,312,l),
(453,312,o),
(438,161,o),
(442,129,cs),
(446,100,o),
(562,142,o),
(562,142,c),
(562,142,o),
(400,12,o),
(334,1,cs),
(258,-12,o),
(335,213,o),
(335,213,c),
(335,213,o),
(137,15,o),
(97,17,cs)
);
},
{
closed = 1;
nodes = (
(159,91,o),
(293,247,o),
(293,247,c),
(293,247,o),
(282,280,o),
(224,265,cs),
(196,258,o),
(103,139,o),
(126,119,cs)
);
}
);
width = 623;
}
);
unicode = 122;
},
{
glyphname = zero;
lastChange = "2020-03-07 16:57:45 +0000";
layers = (
{
layerId = "4CCF3E11-34F0-4D6E-A638-D119D8A2B44F";
shapes = (
{
closed = 1;
nodes = (
(30,360,o),
(144,574,o),
(292,574,cs),
(390,574,o),
(495,445,o),
(495,300,cs),
(495,77,o),
(322,1,o),
(244,1,cs),
(148,1,o),
(30,72,o),
(30,264,cs)
);
},
{
closed = 1;
nodes = (
(95,228,o),
(113,179,o),
(145,140,c),
(167,165,o),
(208,212,o),
(221,231,cs),
(229,243,o),
(228,276,o),
(237,288,cs),
(246,300,o),
(293,304,o),
(303,294,cs),
(312,285,o),
(308,252,o),
(295,237,cs),
(275,213,o),
(193,147,o),
(162,122,c),
(195,90,o),
(239,69,o),
(290,67,cs),
(343,65,o),
(423,54,o),
(425,228,cs),
(427,378,o),
(321,487,o),
(216,487,cs),
(116,487,o),
(95,408,o),
(95,275,cs)
);
}
);
width = 525;
}
);
unicode = 48;
},
{
glyphname = one;
lastChange = "2020-03-06 19:49:30 +0000";
layers = (
{
layerId = "4CCF3E11-34F0-4D6E-A638-D119D8A2B44F";
shapes = (
{
closed = 1;
nodes = (
(295,555,l),
(392,556,o),
(484,493,o),
(506,464,c),
(523,442,o),
(481,403,o),
(447,403,c),
(409,402,o),
(392,527,o),
(291,527,c),
(253,527,o),
(212,489,o),
(210,430,c),
(209,359,o),
(211,206,o),
(211,130,c),
(210,29,o),
(30,1,o),
(30,1,c),
(30,1,o),
(120,47,o),
(120,83,c),
(119,156,o),
(117,309,o),
(118,393,c),
(120,469,o),
(190,554,o),
(295,555,c)
);
}
);
width = 540;
}
);
unicode = 49;
},
{
glyphname = two;
lastChange = "2020-03-06 19:51:39 +0000";
layers = (
{
layerId = "4CCF3E11-34F0-4D6E-A638-D119D8A2B44F";
shapes = (
{
closed = 1;
nodes = (
(251,597,l),
(348,598,o),
(440,534,o),
(462,506,c),
(479,483,o),
(437,445,o),
(403,444,c),
(365,444,o),
(348,568,o),
(248,568,c),
(209,568,o),
(168,531,o),
(167,471,c),
(165,400,o),
(167,248,o),
(167,172,c),
(167,71,o),
(30,1,o),
(30,1,c),
(30,1,o),
(76,89,o),
(76,124,c),
(75,198,o),
(73,350,o),
(75,434,c),
(77,511,o),
(146,595,o),
(251,597,c)
);
},
{
closed = 1;
nodes = (
(283,384,l),
(299,395,o),
(337,398,o),
(339,383,c),
(341,362,o),
(301,323,o),
(269,295,c),
(212,248,o),
(140,262,o),
(140,262,c),
(140,262,o),
(200,293,o),
(231,320,c),
(259,344,o),
(266,372,o),
(283,384,c)
);
}
);
width = 496;
}
);
unicode = 50;
},
{
glyphname = three;
lastChange = "2020-03-06 19:53:13 +0000";
layers = (
{
layerId = "4CCF3E11-34F0-4D6E-A638-D119D8A2B44F";
shapes = (
{
closed = 1;
nodes = (
(333,617,l),
(430,618,o),
(521,555,o),
(543,526,c),
(561,504,o),
(518,465,o),
(485,465,c),
(446,464,o),
(429,589,o),
(329,589,c),
(291,589,o),
(250,551,o),
(248,492,c),
(247,421,o),
(249,268,o),
(248,192,c),
(248,45,o),
(30,1,o),
(30,1,c),
(30,1,o),
(158,109,o),
(157,145,c),
(156,218,o),
(154,371,o),
(156,455,c),
(158,531,o),
(228,616,o),
(333,617,c)
);
},
{
closed = 1;
nodes = (
(365,405,l),
(380,416,o),
(418,419,o),
(420,403,c),
(422,383,o),
(383,343,o),
(350,316,c),
(294,269,o),
(221,283,o),
(221,283,c),
(221,283,o),
(281,313,o),
(312,340,c),
(340,365,o),
(347,393,o),
(365,405,c)
);
},
{
closed = 1;
nodes = (
(368,247,l),
(384,257,o),
(422,260,o),
(424,245,c),
(426,224,o),
(387,185,o),
(354,158,c),
(298,110,o),
(212,122,o),
(212,122,c),
(212,122,o),
(285,155,o),
(316,182,c),
(344,206,o),
(351,234,o),
(368,247,c)
);
}
);
width = 577;
}
);
unicode = 51;
},
{
glyphname = four;
lastChange = "2020-03-07 16:59:44 +0000";
layers = (
{
layerId = "4CCF3E11-34F0-4D6E-A638-D119D8A2B44F";
shapes = (
{
closed = 1;
nodes = (
(209,577,l),
(240,577,o),
(267,553,o),
(283,528,c),
(337,441,o),
(558,117,o),
(543,69,c),
(533,37,o),
(485,1,o),
(455,1,c),
(381,0,o),
(68,3,o),
(68,2,c),
(110,55,l),
(458,55,l),
(458,55,o),
(460,85,o),
(454,96,c),
(416,163,o),
(277,390,o),
(233,462,c),
(219,485,o),
(183,508,o),
(161,509,c),
(136,510,o),
(101,467,o),
(100,438,c),
(99,411,o),
(125,373,o),
(124,347,c),
(123,321,o),
(86,280,o),
(70,280,c),
(54,280,o),
(30,327,o),
(30,381,c),
(30,441,o),
(158,578,o),
(209,577,c)
);
}
);
width = 574;
}
);
unicode = 52;
},
{
glyphname = five;
lastChange = "2020-03-07 17:04:32 +0000";
layers = (
{
layerId = "4CCF3E11-34F0-4D6E-A638-D119D8A2B44F";
shapes = (
{
closed = 1;
nodes = (
(248,567,l),
(302,568,o),
(404,506,o),
(403,435,c),
(403,344,o),
(403,151,o),
(403,77,c),
(404,41,o),
(500,1,o),
(500,1,c),
(500,1,o),
(311,19,o),
(312,89,c),
(312,166,o),
(312,352,o),
(312,424,c),
(312,469,o),
(241,501,o),
(200,503,c),
(160,505,o),
(77,475,o),
(77,475,c),
(77,475,o),
(194,566,o),
(248,567,c)
);
},
{
closed = 1;
nodes = (
(31,56,l),
(43,92,o),
(104,164,o),
(156,207,c),
(207,250,o),
(349,323,o),
(349,323,c),
(349,323,o),
(224,202,o),
(190,162,c),
(170,139,o),
(142,103,o),
(141,84,c),
(140,65,o),
(183,54,o),
(184,41,c),
(185,25,o),
(126,15,o),
(101,15,c),
(75,14,o),
(22,30,o),
(31,56,c)
);
}
);
width = 530;
}
);
unicode = 53;
},
{
glyphname = six;
lastChange = "2020-03-07 17:05:35 +0000";
layers = (
{
layerId = "4CCF3E11-34F0-4D6E-A638-D119D8A2B44F";
shapes = (
{
closed = 1;
nodes = (
(443,585,l),
(519,584,o),
(575,513,o),
(576,467,c),
(578,420,o),
(513,331,o),
(499,360,c),
(486,387,o),
(526,518,o),
(399,517,c),
(364,517,o),
(334,485,o),
(317,455,c),
(274,383,o),
(149,177,o),
(115,112,c),
(107,98,o),
(106,58,o),
(106,57,c),
(532,58,l),
(494,1,l),
(30,1,l),
(69,41,l),
(69,41,o),
(69,95,o),
(79,112,c),
(124,188,o),
(256,411,o),
(306,495,c),
(336,545,o),
(390,585,o),
(443,585,c)
);
}
);
width = 606;
}
);
unicode = 54;
},
{
glyphname = seven;
lastChange = "2020-03-07 17:08:25 +0000";
layers = (
{
layerId = "4CCF3E11-34F0-4D6E-A638-D119D8A2B44F";
shapes = (
{
closed = 1;
nodes = (
(154,626,l),
(233,626,o),
(311,595,o),
(311,502,c),
(315,407,o),
(311,60,o),
(304,60,c),
(226,23,l),
(226,23,o),
(226,406,o),
(226,501,c),
(226,561,o),
(182,592,o),
(130,593,c),
(101,594,o),
(30,571,o),
(30,571,c),
(30,571,o),
(114,626,o),
(154,626,c)
);
},
{
closed = 1;
nodes = (
(454,297,l),
(527,297,o),
(600,207,o),
(596,159,c),
(591,92,o),
(491,3,o),
(434,1,c),
(381,1,o),
(286,79,o),
(286,79,c),
(290,162,l),
(290,162,o),
(405,52,o),
(441,52,c),
(472,52,o),
(502,47,o),
(504,128,c),
(506,178,o),
(464,242,o),
(413,242,c),
(378,243,o),
(303,180,o),
(303,180,c),
(291,217,l),
(291,217,o),
(370,298,o),
(454,297,c)
);
}
);
width = 626;
}
);
unicode = 55;
},
{
glyphname = eight;
lastChange = "2020-03-07 17:07:50 +0000";
layers = (
{
layerId = "4CCF3E11-34F0-4D6E-A638-D119D8A2B44F";
shapes = (
{
closed = 1;
nodes = (
(150,467,l),
(176,466,o),
(240,443,o),
(258,420,c),
(270,406,o),
(255,384,o),
(255,384,c),
(255,384,o),
(183,437,o),
(147,438,c),
(109,438,o),
(30,409,o),
(30,409,c),
(30,409,o),
(112,467,o),
(150,467,c)
);
},
{
closed = 1;
nodes = (
(167,626,l),
(246,626,o),
(324,595,o),
(324,502,c),
(328,407,o),
(324,60,o),
(317,60,c),
(239,23,l),
(239,23,o),
(239,406,o),
(239,501,c),
(239,561,o),
(195,592,o),
(143,593,c),
(114,594,o),
(43,571,o),
(43,571,c),
(43,571,o),
(127,626,o),
(167,626,c)
);
},
{
closed = 1;
nodes = (
(467,297,l),
(540,297,o),
(613,207,o),
(609,159,c),
(604,92,o),
(504,3,o),
(447,1,c),
(394,1,o),
(299,79,o),
(299,79,c),
(303,162,l),
(303,162,o),
(418,52,o),
(454,52,c),
(485,52,o),
(515,47,o),
(517,128,c),
(519,178,o),
(477,242,o),
(426,242,c),
(391,243,o),
(316,180,o),
(316,180,c),
(304,217,l),
(304,217,o),
(383,298,o),
(467,297,c)
);
}
);
width = 639;
}
);
unicode = 56;
},
{
glyphname = nine;
lastChange = "2020-03-07 17:07:12 +0000";
layers = (
{
layerId = "4CCF3E11-34F0-4D6E-A638-D119D8A2B44F";
shapes = (
{
closed = 1;
nodes = (
(155,467,l),
(181,466,o),
(245,443,o),
(263,420,c),
(275,406,o),
(260,384,o),
(260,384,c),
(260,384,o),
(188,437,o),
(152,438,c),
(114,438,o),
(35,409,o),
(35,409,c),
(35,409,o),
(117,467,o),
(155,467,c)
);
},
{
closed = 1;
nodes = (
(150,322,l),
(177,322,o),
(240,298,o),
(259,275,c),
(270,262,o),
(256,240,o),
(256,240,c),
(256,240,o),
(184,293,o),
(148,293,c),
(109,294,o),
(30,265,o),
(30,265,c),
(30,265,o),
(112,322,o),
(150,322,c)
);
},
{
closed = 1;
nodes = (
(172,626,l),
(251,626,o),
(329,595,o),
(329,502,c),
(333,407,o),
(329,60,o),
(322,60,c),
(244,23,l),
(244,23,o),
(244,406,o),
(244,501,c),
(244,561,o),
(200,592,o),
(148,593,c),
(119,594,o),
(48,571,o),
(48,571,c),
(48,571,o),
(132,626,o),
(172,626,c)
);
},
{
closed = 1;
nodes = (
(472,297,l),
(545,297,o),
(618,207,o),
(614,159,c),
(609,92,o),
(509,3,o),
(452,1,c),
(399,1,o),
(304,79,o),
(304,79,c),
(308,162,l),
(308,162,o),
(423,52,o),
(459,52,c),
(490,52,o),
(520,47,o),
(522,128,c),
(524,178,o),
(482,242,o),
(431,242,c),
(396,243,o),
(321,180,o),
(321,180,c),
(309,217,l),
(309,217,o),
(388,298,o),
(472,297,c)
);
}
);
width = 644;
}
);
unicode = 57;
},
{
glyphname = period;
lastChange = "2020-03-06 19:32:45 +0000";
layers = (
{
layerId = "4CCF3E11-34F0-4D6E-A638-D119D8A2B44F";
shapes = (
{
closed = 1;
nodes = (
(30,84,o),
(54,108,o),
(84,108,cs),
(114,108,o),
(138,84,o),
(138,55,cs),
(138,25,o),
(114,1,o),
(84,1,cs),
(54,1,o),
(30,25,o),
(30,55,cs)
);
},
{
closed = 1;
nodes = (
(65,45,o),
(73,36,o),
(83,36,cs),
(94,36,o),
(102,45,o),
(102,55,cs),
(102,66,o),
(94,74,o),
(83,74,cs),
(73,74,o),
(65,66,o),
(65,55,cs)
);
}
);
width = 168;
}
);
unicode = 46;
},
{
glyphname = comma;
lastChange = "2020-03-06 19:31:33 +0000";
layers = (
{
layerId = "4CCF3E11-34F0-4D6E-A638-D119D8A2B44F";
shapes = (
{
closed = 1;
nodes = (
(59,81,l),
(112,81,l),
(112,31,l),
(59,31,l)
);
},
{
closed = 1;
nodes = (
(84,108,l),
(114,108,o),
(138,84,o),
(138,55,c),
(138,25,o),
(114,1,o),
(84,1,c),
(54,1,o),
(30,25,o),
(30,55,c),
(30,84,o),
(54,108,o),
(84,108,c)
);
},
{
closed = 1;
nodes = (
(83,74,l),
(94,74,o),
(102,66,o),
(102,55,c),
(102,45,o),
(94,36,o),
(83,36,c),
(73,36,o),
(65,45,o),
(65,55,c),
(65,66,o),
(73,74,o),
(83,74,c)
);
}
);
width = 168;
}
);
unicode = 44;
},
{
glyphname = hyphen;
lastChange = "2020-03-06 19:33:30 +0000";
layers = (
{
layerId = "4CCF3E11-34F0-4D6E-A638-D119D8A2B44F";
shapes = (
{
closed = 1;
nodes = (
(30,298,l),
(402,298,l),
(402,243,l),
(30,243,l)
);
}
);
width = 432;
}
);
unicode = 45;
},
